<?xml version="1.0" encoding="UTF-8"?>
<svg version="1.1" xmlns="http://www.w3.org/2000/svg" width="1536" height="1536">
<path d="M0 0 C506.88 0 1013.76 0 1536 0 C1536 506.88 1536 1013.76 1536 1536 C1029.12 1536 522.24 1536 0 1536 C0 1029.12 0 522.24 0 0 Z " fill="#131B23" transform="translate(0,0)"/>
<path d="M0 0 C6.166206 3.69487786 11.17041668 9.06170669 15.40234375 14.8125 C23.34677154 25.51393756 31.57182208 35.99872031 40.16796875 46.18359375 C43.45095704 50.13786399 46.61743154 54.17846362 49.7722168 58.23535156 C50.41477417 59.0605127 50.41477417 59.0605127 51.0703125 59.90234375 C51.48619629 60.43698242 51.90208008 60.97162109 52.33056641 61.52246094 C53.66162087 63.18944579 55.04517923 64.80199575 56.4375 66.41796875 C58.61328125 69.12890625 58.61328125 69.12890625 58.61328125 71.12890625 C59.27328125 71.12890625 59.93328125 71.12890625 60.61328125 71.12890625 C61.8046875 72.4921875 61.8046875 72.4921875 63.17578125 74.44140625 C67.10188721 79.85409603 71.357517 84.9738374 75.61328125 90.12890625 C80.5184102 96.0745171 85.36404274 102.05833354 90.11328125 108.12890625 C94.86301549 114.1993741 99.71687325 120.17594645 104.61328125 126.12890625 C111.99230451 135.11743955 119.24642549 144.18718257 126.35961914 153.38769531 C131.88809579 160.52191186 137.57232829 167.52349992 143.29003906 174.50634766 C145.08014731 176.70137707 146.84904341 178.91305728 148.61328125 181.12890625 C149.40089844 180.15953125 150.18851563 179.19015625 151 178.19140625 C151.51997559 177.55146729 152.03995117 176.91152832 152.57568359 176.25219727 C153.73889174 174.82049316 154.90197495 173.38868755 156.06494141 171.95678711 C159.0820911 168.24228117 162.10106522 164.5292976 165.125 160.8203125 C170.13433327 154.67265814 175.12372991 148.51992165 179.96484375 142.23828125 C182.59404234 138.8739039 185.31291166 135.58412103 188.0234375 132.28515625 C196.84369461 121.54926584 205.63837582 110.78240743 214.19140625 99.83203125 C218.59269635 94.19943711 223.01477086 88.60332338 227.61328125 83.12890625 C233.58809541 76.01198701 239.29124449 68.69018187 244.99267578 61.35400391 C250.3791824 54.42521511 255.85472799 47.61295842 261.56298828 40.94628906 C265.08316526 36.81211319 268.4060567 32.5497992 271.69677734 28.22998047 C275.17705274 23.6731618 278.71522535 19.16588766 282.30078125 14.69140625 C282.82333496 14.02906982 283.34588867 13.3667334 283.88427734 12.68432617 C288.74952458 6.64979837 294.43695662 -0.21279276 302.53125 -1.2421875 C310.01902403 -1.39426893 315.80328111 -0.91853137 321.61328125 4.12890625 C326.85348498 10.49021126 327.76106841 16.0348561 327.77149963 24.12677002 C327.77643761 24.93873109 327.78137559 25.75069215 327.7864632 26.5872581 C327.80183529 29.31109969 327.81019806 32.03491772 327.81860352 34.75878906 C327.82818226 36.71009529 327.83819234 38.66139944 327.84860229 40.61270142 C327.87565775 45.91393511 327.89666388 51.21517771 327.91660428 56.5164423 C327.93845985 62.05514719 327.96585065 67.5938246 327.99266052 73.13250732 C328.04259319 83.6225686 328.08752991 94.11264512 328.13068289 104.60273623 C328.18005034 116.54457883 328.2349703 128.48639385 328.29036248 140.42820978 C328.40419135 164.99508288 328.51102844 189.56198243 328.61328125 214.12890625 C328.91966522 213.4727533 329.22604919 212.81660034 329.54171753 212.14056396 C330.95253137 209.12848753 332.37266848 206.12089542 333.79296875 203.11328125 C334.27467529 202.08122559 334.75638184 201.04916992 335.25268555 199.98583984 C339.2271783 191.5963564 343.83800551 184.36220242 349.61328125 177.12890625 C350.31710937 176.2059375 351.0209375 175.28296875 351.74609375 174.33203125 C376.79270496 142.35370107 412.67549027 122.33772249 452.61328125 116.12890625 C453.7940625 115.94328125 454.97484375 115.75765625 456.19140625 115.56640625 C496.49028096 110.75314607 538.19989816 121.02226978 570.6953125 145.4453125 C573.39266417 147.61451139 576.01327455 149.84429694 578.61328125 152.12890625 C579.45246094 152.84691406 580.29164063 153.56492187 581.15625 154.3046875 C596.83150947 167.98712329 609.15674493 184.33716851 617.76367188 203.27050781 C618.55625648 205.00417276 619.38802945 206.7197727 620.22265625 208.43359375 C629.21344023 227.75914488 633.04920343 249.31976296 632.98828125 270.50390625 C632.98696701 271.62374405 632.98696701 271.62374405 632.98562622 272.76620483 C632.82729405 313.82792873 617.00138874 349.96199 589.61328125 380.12890625 C589.01257812 380.80179688 588.411875 381.4746875 587.79296875 382.16796875 C582.08755519 388.21742735 575.21805337 393.11671925 568.61328125 398.12890625 C567.34291016 399.10923828 567.34291016 399.10923828 566.046875 400.109375 C558.77942309 405.48310848 550.76650016 409.30596137 542.61328125 413.12890625 C541.45570313 413.67804688 540.298125 414.2271875 539.10546875 414.79296875 C509.29160123 428.28184153 472.48189233 431.72251878 440.61328125 424.12890625 C439.35862061 423.83089111 439.35862061 423.83089111 438.07861328 423.52685547 C409.85310125 416.58103822 385.7712413 403.0571729 364.61328125 383.12890625 C363.97261719 382.55269531 363.33195312 381.97648437 362.671875 381.3828125 C349.0086406 368.57531303 339.23870474 352.23700963 331.48217773 335.36816406 C330.9442308 334.19924622 330.40628387 333.03032837 329.85203552 331.82598877 C329.44324661 330.93595154 329.0344577 330.04591431 328.61328125 329.12890625 C328.60963562 330.17602783 328.60598999 331.22314941 328.60223389 332.30200195 C328.56523011 342.18894341 328.5073986 352.07557496 328.42937851 361.96228027 C328.38993499 367.04469053 328.35773113 372.12692832 328.34228516 377.20947266 C328.32709806 382.11801625 328.29261591 387.02608564 328.24497223 391.93441772 C328.23017962 393.80337391 328.22224146 395.67239781 328.2213974 397.54141235 C328.21901958 400.16744037 328.19187541 402.79216652 328.15917969 405.41796875 C328.16421005 406.18401932 328.16924042 406.95006989 328.17442322 407.73933411 C328.05683061 413.87725975 326.41963133 419.35557287 321.95875931 423.76396275 C315.81463722 428.70560411 307.92567956 427.8343673 300.45703125 427.7578125 C298.98547185 427.75864268 297.51391256 427.76110769 296.0423584 427.76512146 C292.969196 427.76796859 289.89676679 427.75338644 286.82373047 427.72583008 C282.9030649 427.69174795 278.98370895 427.6977752 275.06298065 427.71649265 C272.02753972 427.72710878 268.99239859 427.71808339 265.95698547 427.70310783 C264.51224154 427.69795926 263.06746587 427.69836704 261.62272644 427.70465279 C246.16883956 427.74666143 246.16883956 427.74666143 240.61328125 423.12890625 C233.73893092 415.45061191 234.94417023 405.27430188 235.0456543 395.66577148 C235.04706612 393.79254698 235.04627017 391.91931971 235.04344177 390.0460968 C235.04201146 384.98043091 235.07133896 379.91536104 235.10631156 374.84983325 C235.13763926 369.54876934 235.14051086 364.24769066 235.1464386 358.94654846 C235.16195819 348.91691495 235.20296123 338.88755504 235.25318605 328.85804182 C235.30913812 317.43608187 235.33658078 306.01410862 235.36166322 294.59204566 C235.41387867 271.10418104 235.50178437 247.616559 235.61328125 224.12890625 C232.14891991 226.13486785 229.80170847 227.76678177 227.42578125 231.00390625 C226.8328125 231.79667969 226.23984375 232.58945312 225.62890625 233.40625 C224.96375 234.30472656 224.29859375 235.20320312 223.61328125 236.12890625 C221.97135583 238.27789687 220.32618076 240.42395828 218.67578125 242.56640625 C218.24765137 243.12360352 217.81952148 243.68080078 217.37841797 244.25488281 C211.45380907 251.95530287 205.33033473 259.48994499 199.171875 267.00390625 C186.78340729 282.03659814 186.78340729 282.03659814 174.88671875 297.45703125 C169.40790674 304.74602344 163.87424848 311.15952658 154.61328125 313.12890625 C146.80340555 314.09176764 139.4624301 313.13087985 132.61328125 309.12890625 C125.80588488 303.13092591 120.48830647 295.527039 115.0390625 288.3046875 C112.8331024 285.41669143 110.56238421 282.60951737 108.23828125 279.81640625 C104.56915276 275.37721376 101.10573011 270.81523174 97.67578125 266.19140625 C93.19344844 260.1503742 88.54518513 254.31157157 83.671875 248.58203125 C78.61328125 242.55395369 78.61328125 242.55395369 78.61328125 240.12890625 C77.62328125 239.79890625 76.63328125 239.46890625 75.61328125 239.12890625 C74.31054688 237.65429688 74.31054688 237.65429688 73.01953125 235.78515625 C72.54644531 235.11613281 72.07335937 234.44710937 71.5859375 233.7578125 C70.60416667 232.33854167 69.62239583 230.91927083 68.640625 229.5 C68.16753906 228.83097656 67.69445312 228.16195312 67.20703125 227.47265625 C66.78099609 226.85583984 66.35496094 226.23902344 65.91601562 225.60351562 C64.57544435 223.83762432 64.57544435 223.83762432 61.61328125 223.12890625 C61.61696842 224.11804583 61.62065559 225.1071854 61.6244545 226.1262989 C61.7132291 250.18758292 61.77897304 274.24884571 61.82052994 298.31025887 C61.8411604 309.94615624 61.86929037 321.58194547 61.91503906 333.21777344 C61.95489186 343.35885466 61.98071054 353.49985757 61.98963523 363.64101493 C61.99485258 369.01134617 62.00712554 374.38145334 62.03620148 379.7517128 C62.06334584 384.80615255 62.07172816 389.86027586 62.06571198 394.91478157 C62.06681264 396.76994483 62.07477231 398.62511865 62.09010315 400.48021889 C62.11001594 403.01398539 62.10521608 405.54655845 62.09429932 408.08035278 C62.10595068 408.81382876 62.11760205 409.54730473 62.12960649 410.30300725 C62.0705534 415.37653768 60.77513 418.20794392 57.61328125 422.12890625 C52.86305786 426.41569321 49.63569667 427.2523979 43.32519531 427.29003906 C42.02664612 427.29964661 40.72809692 427.30925415 39.39019775 427.31915283 C37.96976904 427.32400173 36.54933829 427.32828033 35.12890625 427.33203125 C33.67022704 427.33778605 32.21154784 427.34354374 30.75286865 427.3493042 C27.69298959 427.35980809 24.63313674 427.36565432 21.57324219 427.36914062 C17.66492777 427.37461502 13.75696355 427.39862268 9.8487587 427.42711258 C6.83403536 427.44580095 3.81939519 427.45094791 0.80461884 427.4524765 C-0.63539793 427.45549111 -2.07541365 427.46347915 -3.51537323 427.47666168 C-19.23006567 427.6102221 -19.23006567 427.6102221 -25.09375 422.69921875 C-29.29402891 417.20768802 -30.63621087 413.23383089 -30.64119434 406.33591747 C-30.64600406 405.32543227 -30.64600406 405.32543227 -30.65091094 404.29453322 C-30.65922496 402.03287281 -30.65328183 399.77147624 -30.64741516 397.5098114 C-30.65043521 395.87365015 -30.65432396 394.2374903 -30.65900773 392.60133296 C-30.66931546 388.10162556 -30.66709885 383.60199759 -30.66282713 379.1022836 C-30.66036491 374.25076693 -30.66936784 369.39926963 -30.67686462 364.54776001 C-30.68962808 355.04135234 -30.69140323 345.53497289 -30.68906436 336.0285581 C-30.68728274 328.3022927 -30.68902749 320.57603587 -30.6932888 312.8497715 C-30.69388399 311.75094032 -30.69447918 310.65210914 -30.69509241 309.51998005 C-30.69630414 307.28782456 -30.69751827 305.05566908 -30.69873478 302.8235136 C-30.70961684 281.87953399 -30.70744478 260.93557047 -30.70134994 239.99158994 C-30.69618121 220.82727436 -30.70743388 201.66300962 -30.72644816 182.4987041 C-30.74581617 162.82724649 -30.75408431 143.15581294 -30.7503249 123.48434573 C-30.74841115 112.43778073 -30.75091727 101.391259 -30.76503944 90.34470177 C-30.77694106 80.93975958 -30.77837189 71.53488729 -30.76624928 62.12994417 C-30.76035179 57.33101644 -30.75928515 52.53221663 -30.77125168 47.73329735 C-30.78208074 43.33947534 -30.77904263 38.9458885 -30.76498999 34.55207763 C-30.76233483 32.96326631 -30.76473527 31.37443674 -30.77272586 29.7856433 C-30.85534718 12.13116982 -30.85534718 12.13116982 -24.94921875 5.31640625 C-17.70333101 -0.86910768 -9.47517565 -3.4582065 0 0 Z " fill="#03D88B" transform="translate(466.38671875,587.87109375)"/>
<path d="M0 0 C1.71878698 1.46700652 3.42749794 2.94591576 5.125 4.4375 C5.96417969 5.15550781 6.80335938 5.87351562 7.66796875 6.61328125 C23.34322822 20.29571704 35.66846368 36.64576226 44.27539062 55.57910156 C45.06797523 57.31276651 45.8997482 59.02836645 46.734375 60.7421875 C55.72515898 80.06773863 59.56092218 101.62835671 59.5 122.8125 C59.49912384 123.55905853 59.49824768 124.30561707 59.49734497 125.07479858 C59.3390128 166.13652248 43.51310749 202.27058375 16.125 232.4375 C15.52429687 233.11039063 14.92359375 233.78328125 14.3046875 234.4765625 C8.59927394 240.5260211 1.72977212 245.425313 -4.875 250.4375 C-6.14537109 251.41783203 -6.14537109 251.41783203 -7.44140625 252.41796875 C-14.70885816 257.79170223 -22.72178109 261.61455512 -30.875 265.4375 C-32.03257812 265.98664063 -33.19015625 266.53578125 -34.3828125 267.1015625 C-64.19668002 280.59043528 -101.00638892 284.03111253 -132.875 276.4375 C-134.12966064 276.13948486 -134.12966064 276.13948486 -135.40966797 275.83544922 C-163.63518 268.88963197 -187.71703995 255.36576665 -208.875 235.4375 C-209.51566406 234.86128906 -210.15632812 234.28507812 -210.81640625 233.69140625 C-237.82163772 208.37752539 -253.83243886 169.08782787 -255.12916565 132.47434998 C-255.60046787 116.16341092 -255.49683417 100.21411269 -250.875 84.4375 C-250.52091064 83.18187256 -250.52091064 83.18187256 -250.15966797 81.90087891 C-244.63026261 62.68877997 -236.20099394 45.18848741 -223.875 29.4375 C-223.16988281 28.51066406 -222.46476563 27.58382812 -221.73828125 26.62890625 C-196.64590027 -5.32793386 -160.83649567 -25.34999857 -120.875 -31.5625 C-119.69421875 -31.748125 -118.5134375 -31.93375 -117.296875 -32.125 C-75.97521122 -37.06042116 -32.57023843 -26.19284909 0 0 Z " fill="#FCFDFC" transform="translate(1039.875,735.5625)"/>
<path d="M0 0 C0.33 0 0.66 0 1 0 C1.24785034 25.94787123 1.4663238 51.89584764 1.65021229 77.84425449 C1.73628113 89.89364563 1.83181585 101.94282042 1.94995117 113.99194336 C2.05294185 124.49888426 2.13784955 135.0057925 2.20140952 145.51304859 C2.23565913 151.07214163 2.27871377 156.63084016 2.34345436 162.18966866 C2.40422273 167.43202955 2.44063657 172.67401959 2.45913696 177.91669464 C2.47004626 179.83102149 2.48951866 181.74532382 2.51865196 183.65946007 C2.69382503 195.56842964 1.43790462 204.90197368 -3 216 C-10.59988115 240.40873638 -10.01448303 272.7078887 -1.72662163 296.84800339 C2.15179012 308.38045721 2.78681561 318.84434045 2.5078125 330.921875 C2.48423628 332.84708166 2.46286997 334.77231649 2.443573 336.6975708 C2.3969618 340.68796133 2.32943136 344.67722422 2.24511719 348.66699219 C2.13835928 353.76388744 2.07726286 358.86010611 2.03055 363.95786667 C1.99071128 367.91477186 1.93118559 371.87118563 1.86532211 375.8277359 C1.83556898 377.70782403 1.81087563 379.58799978 1.79150772 381.46822357 C1.76072253 384.0899519 1.70439677 386.70993471 1.64111328 389.33105469 C1.63671738 390.09373657 1.63232147 390.85641846 1.62779236 391.64221191 C1.43701393 397.74593071 -0.21740507 403.24924806 -4.65415001 407.63522053 C-10.79938101 412.57602726 -18.68695826 411.70546765 -26.15625 411.62890625 C-27.6278094 411.62973643 -29.09936869 411.63220144 -30.57092285 411.63621521 C-33.64408525 411.63906234 -36.71651446 411.62448019 -39.78955078 411.59692383 C-43.71021635 411.5628417 -47.6295723 411.56886895 -51.5503006 411.5875864 C-54.58574153 411.59820253 -57.62088266 411.58917714 -60.65629578 411.57420158 C-62.10103971 411.56905301 -63.54581538 411.56946079 -64.99055481 411.57574654 C-80.44444169 411.61775518 -80.44444169 411.61775518 -86 407 C-92.87435033 399.32170566 -91.66911102 389.14539563 -91.56762695 379.53686523 C-91.56621513 377.66364073 -91.56701108 375.79041346 -91.56983948 373.91719055 C-91.57126979 368.85152466 -91.54194229 363.78645479 -91.50696969 358.720927 C-91.47564199 353.41986309 -91.47277039 348.11878441 -91.46684265 342.81764221 C-91.45132306 332.7880087 -91.41032002 322.75864879 -91.3600952 312.72913557 C-91.30414313 301.30717562 -91.27670047 289.88520237 -91.25161803 278.46313941 C-91.19940258 254.97527479 -91.11149688 231.48765275 -91 208 C-91.66 207.67 -92.32 207.34 -93 207 C-91.74566499 203.23699497 -89.80830576 201.80830576 -87 199 C-83.95679324 195.20597583 -81.16197587 191.23383668 -78.375 187.25 C-76.05010615 183.97130355 -73.39172781 181.28038958 -70.4375 178.5625 C-68.894193 176.99053417 -68.894193 176.99053417 -67.6875 174.8125 C-65.3962878 170.99381299 -62.71024653 167.52829995 -60 164 C-59.2575 163.01 -58.515 162.02 -57.75 161 C-56.88375 160.01 -56.88375 160.01 -56 159 C-55.34 159 -54.68 159 -54 159 C-53.938125 158.443125 -53.87625 157.88625 -53.8125 157.3125 C-52.88721505 154.67899667 -51.51656743 153.41546309 -49.51171875 151.53125 C-47.05868998 149.04652835 -45.02303816 146.25179008 -42.90625 143.48046875 C-40.22788809 139.9953052 -37.46143026 136.58290975 -34.69921875 133.1640625 C-32.88325839 130.90892141 -32.88325839 130.90892141 -31 128 C-30.34 128 -29.68 128 -29 128 C-28.71898437 127.40832031 -28.43796875 126.81664062 -28.1484375 126.20703125 C-25.48929372 121.09677195 -21.58367878 116.71139228 -17.97265625 112.25 C-17.16417236 111.24900269 -17.16417236 111.24900269 -16.33935547 110.2277832 C-15.24749854 108.87918014 -14.15153137 107.53389337 -13.05126953 106.19213867 C-12.54321777 105.5654126 -12.03516602 104.93868652 -11.51171875 104.29296875 C-10.82275513 103.45028442 -10.82275513 103.45028442 -10.11987305 102.59057617 C-8.79910785 100.87662507 -8.79910785 100.87662507 -8 98 C-7.34 98 -6.68 98 -6 98 C-6 97.34 -6 96.68 -6 96 C-5.360625 95.525625 -4.72125 95.05125 -4.0625 94.5625 C-1.71627037 93.0908635 -1.71627037 93.0908635 -1 90 C-0.8795998 87.12540889 -0.81459902 84.27327277 -0.79467773 81.39770508 C-0.78477814 80.51944565 -0.77487854 79.64118622 -0.76467896 78.73631287 C-0.73306881 75.8307465 -0.70830839 72.92516378 -0.68359375 70.01953125 C-0.66302381 68.00599236 -0.64202732 65.99245778 -0.62062073 63.97892761 C-0.56540423 58.67712903 -0.51599305 53.37529151 -0.46777344 48.07342529 C-0.41755537 42.66414928 -0.36187089 37.25492987 -0.30664062 31.84570312 C-0.1990642 21.2305171 -0.09761804 10.61528194 0 0 Z " fill="#05B273" transform="translate(793,604)"/>
<path d="M0 0 C1.30088058 -0.01004562 2.60176117 -0.02009125 3.94206238 -0.03044128 C5.37158145 -0.03647018 6.80110114 -0.04235527 8.23062134 -0.04811096 C9.74560253 -0.05765828 11.26058159 -0.06754981 12.77555847 -0.07775879 C17.73662767 -0.10902896 22.69771309 -0.12939096 27.65884399 -0.14796448 C28.50423752 -0.1512618 29.34963105 -0.15455912 30.22064257 -0.15795636 C38.19863596 -0.18872064 46.17663333 -0.21541433 54.15466881 -0.23237514 C64.34253582 -0.25429299 74.52987675 -0.29631539 84.71753347 -0.36581272 C91.89139015 -0.41308395 99.06510497 -0.43731239 106.2391125 -0.44457203 C110.51969301 -0.44952142 114.79967911 -0.4645351 119.08008957 -0.50431633 C123.10718505 -0.54125447 127.13334828 -0.5495695 131.16058159 -0.5363102 C132.63436685 -0.53636402 134.10819424 -0.54660884 135.58182335 -0.56806183 C143.34174163 -0.6749503 149.0962665 -0.66970215 155.08022499 4.64070034 C158.37982553 8.30760547 158.83958685 11.86292322 158.70181274 16.73094177 C156.3363389 39.36670689 143.97638866 56.95810468 126.77749634 71.10423279 C113.75127338 81.46749759 96.80180806 88.24403086 80.04057312 88.30780029 C78.74659103 88.3149556 77.45260895 88.3221109 76.11941528 88.32948303 C74.69253564 88.3323229 73.26565574 88.33503467 71.83877563 88.33763123 C70.33054957 88.34390016 68.82232504 88.35054734 67.31410217 88.35754395 C62.37043319 88.37852695 57.42676408 88.38893755 52.48306274 88.39891052 C50.77908245 88.40295954 49.07510232 88.40707651 47.37112236 88.4112606 C39.36849773 88.43029572 31.36588225 88.44453304 23.36323935 88.45287257 C14.13030879 88.46265394 4.8976174 88.48900383 -4.33522886 88.52937347 C-11.47676768 88.55952681 -18.61823787 88.5743405 -25.75983912 88.57765359 C-30.02345665 88.58000398 -34.28681818 88.58896365 -38.55036736 88.61411476 C-42.56006716 88.6373885 -46.56934219 88.64163174 -50.57909203 88.63135338 C-52.04885521 88.63085782 -53.51863928 88.6371844 -54.98833847 88.65090942 C-56.99807324 88.66862499 -59.00799245 88.65913799 -61.01777649 88.64837646 C-62.14140059 88.65076482 -63.2650247 88.65315317 -64.42269802 88.6556139 C-69.15662457 87.90683642 -72.33439777 85.63026206 -75.36459351 81.97312927 C-79.7858616 71.50170484 -76.30722858 60.28348383 -72.42709351 50.09812927 C-69.3550626 43.16755352 -65.10028229 37.17469771 -60.55209351 31.16062927 C-59.99779663 30.41941833 -59.44349976 29.6782074 -58.87240601 28.91453552 C-45.38781913 12.24329255 -21.36116989 0.13022347 0 0 Z " fill="#06B274" transform="translate(915.5520935058594,586.8393707275391)"/>
<path d="M0 0 C13.9197523 11.39112005 23.31275627 24.69611198 26.4375 42.75 C27.84364864 64.46647438 24.61975686 83.5509481 10.1015625 100.47265625 C0.10695149 111.12673573 -11.29551998 117.27647116 -25.5625 120.75 C-26.67238281 121.03810547 -26.67238281 121.03810547 -27.8046875 121.33203125 C-47.3153118 124.28902388 -65.85814895 120.2890916 -82.04296875 109.0234375 C-84.01625539 107.36130783 -85.78597382 105.62002756 -87.5625 103.75 C-88.2740625 103.069375 -88.985625 102.38875 -89.71875 101.6875 C-94.65098441 96.68770073 -98.19551008 91.33429463 -101.5 85.1875 C-101.87761475 84.49156738 -102.25522949 83.79563477 -102.64428711 83.07861328 C-110.00342137 68.76312519 -110.28372065 48.54442997 -105.5 33.375 C-101.00745229 22.28834865 -94.99429418 13.21127598 -86.5625 4.75 C-85.94890625 4.11320313 -85.3353125 3.47640625 -84.703125 2.8203125 C-61.84116673 -19.16233968 -24.50313911 -18.2721003 0 0 Z " fill="#1D2A33" transform="translate(982.5625,804.25)"/>
<path d="M0 0 C0.81042252 -0.00014603 1.62084503 -0.00029205 2.45582581 -0.0004425 C5.11787654 0.00025068 7.77985612 0.00801516 10.44189453 0.01586914 C12.29419924 0.01773543 14.14650444 0.01915834 15.99880981 0.02015686 C20.86166764 0.02396542 25.72449534 0.03378147 30.58734131 0.04486084 C35.55447991 0.05511073 40.52162339 0.05966214 45.48876953 0.06469727 C55.22576189 0.07540527 64.96273195 0.09246168 74.69970703 0.11352539 C74.36970703 0.77352539 74.03970703 1.43352539 73.69970703 2.11352539 C73.03970703 2.11352539 72.37970703 2.11352539 71.69970703 2.11352539 C71.42771484 2.69102539 71.15572266 3.26852539 70.87548828 3.86352539 C67.81285002 9.72425508 63.82206146 14.01564185 58.69970703 18.11352539 C57.07077583 20.19920405 55.53697265 22.32771653 54.03173828 24.50415039 C53.59216797 25.03524414 53.15259766 25.56633789 52.69970703 26.11352539 C52.03970703 26.11352539 51.37970703 26.11352539 50.69970703 26.11352539 C50.43029297 26.70004883 50.16087891 27.28657227 49.88330078 27.89086914 C48.70125516 30.11061818 47.41870319 31.79191907 45.76220703 33.67602539 C45.25818359 34.25481445 44.75416016 34.83360352 44.23486328 35.42993164 C43.23221334 36.52952992 42.19874298 37.60199657 41.13330078 38.64086914 C39.47054253 40.25910906 39.47054253 40.25910906 37.69970703 43.11352539 C37.03970703 43.11352539 36.37970703 43.11352539 35.69970703 43.11352539 C35.47283203 43.67040039 35.24595703 44.22727539 35.01220703 44.80102539 C33.3380344 47.75075813 31.12138392 49.75091379 28.69970703 52.11352539 C28.14283203 52.87665039 27.58595703 53.63977539 27.01220703 54.42602539 C26.57908203 54.98290039 26.14595703 55.53977539 25.69970703 56.11352539 C25.03970703 56.11352539 24.37970703 56.11352539 23.69970703 56.11352539 C23.43158203 56.69618164 23.16345703 57.27883789 22.88720703 57.87915039 C21.68489713 60.1413914 20.36144791 61.91928857 18.69970703 63.86352539 C18.18408203 64.47711914 17.66845703 65.09071289 17.13720703 65.72290039 C15.69970703 67.11352539 15.69970703 67.11352539 13.69970703 67.11352539 C13.32845703 68.28915039 13.32845703 68.28915039 12.94970703 69.48852539 C11.490462 72.55293996 10.64955747 72.730783 7.69970703 74.11352539 C7.03188421 75.44628002 6.36542589 76.77971857 5.69970703 78.11352539 C4.55024951 79.52048263 3.36046604 80.89523888 2.13720703 82.23852539 C-0.37708513 84.97390584 -0.37708513 84.97390584 -2.30029297 88.11352539 C-10.93231116 88.20634392 -19.56415666 88.27735005 -28.19656563 88.32077408 C-32.20527949 88.34161909 -36.21365107 88.36987946 -40.22216797 88.4152832 C-44.09309106 88.45885238 -47.96368562 88.48268571 -51.83483505 88.49303436 C-53.30920455 88.500406 -54.78355675 88.51480131 -56.2577858 88.53644562 C-58.32849756 88.56562896 -60.39786457 88.56947549 -62.46875 88.56762695 C-64.2341362 88.58095062 -64.2341362 88.58095062 -66.03518677 88.59454346 C-70.86369469 87.88320379 -74.02606605 85.65138547 -77.11279297 81.92602539 C-81.53406106 71.45460095 -78.05542804 60.23637995 -74.17529297 50.05102539 C-71.10326206 43.12044963 -66.84848175 37.12759383 -62.30029297 31.11352539 C-61.74599609 30.37231445 -61.19169922 29.63110352 -60.62060547 28.86743164 C-46.5732233 11.50039449 -22.12774325 -0.1054356 0 0 Z " fill="#03D88A" transform="translate(917.30029296875,586.886474609375)"/>
<path d="M0 0 C1.89563549 1.20260746 3.65427982 2.43382715 5.3671875 3.8828125 C2.3671875 3.8828125 2.3671875 3.8828125 0.6796875 2.90625 C-2.69146659 1.41428654 -6.01144185 1.51437295 -9.6328125 1.5078125 C-10.344375 1.48332031 -11.0559375 1.45882812 -11.7890625 1.43359375 C-15.29060438 1.41399557 -17.23151877 1.57156517 -20.03515625 3.74609375 C-21.7489571 6.03814525 -23.17972944 8.41888905 -24.6328125 10.8828125 C-25.14952524 11.29098483 -25.66623799 11.69915716 -26.1986087 12.11969835 C-28.39073043 14.81454607 -28.0122328 17.09829975 -28.01757336 20.53013897 C-28.02272326 21.21232672 -28.02787317 21.89451448 -28.03317913 22.59737459 C-28.04687464 24.90011399 -28.03909222 27.20228986 -28.03153992 29.50505066 C-28.03697527 31.16581425 -28.0437251 32.82657397 -28.05168182 34.4873274 C-28.06978068 39.06402676 -28.06914111 43.64056448 -28.06555235 48.21729124 C-28.06493053 53.14778185 -28.0815295 58.07821726 -28.09606934 63.00868225 C-28.11890123 71.55538016 -28.13074834 80.10203718 -28.13519859 88.64876366 C-28.14164874 101.00598439 -28.16456605 113.36313109 -28.19154189 125.72032205 C-28.23485617 145.76755782 -28.26479639 165.81479048 -28.28637695 185.86206055 C-28.30737275 205.33961516 -28.33463561 224.81714432 -28.37036133 244.29467773 C-28.37256015 245.49466179 -28.37475898 246.69464584 -28.37702443 247.93099304 C-28.38809374 253.95077798 -28.39928661 259.97056267 -28.41054094 265.99034727 C-28.50379173 315.95447983 -28.57535922 365.91862684 -28.6328125 415.8828125 C-31.04305907 412.26744264 -30.88418191 410.63809161 -30.88728809 406.33591938 C-30.89049457 405.66457027 -30.89370105 404.99322115 -30.89700469 404.30152813 C-30.90535369 402.03567555 -30.89936343 399.77008394 -30.89350891 397.50422668 C-30.89652739 395.86979154 -30.90041533 394.2353578 -30.90510148 392.60092658 C-30.91542984 388.09670057 -30.91318739 383.59255373 -30.90892088 379.08832109 C-30.90646232 374.23540589 -30.91545708 369.38251019 -30.92295837 364.52960205 C-30.93573277 355.01623595 -30.93749557 345.50289805 -30.93515811 335.98952482 C-30.93337746 328.25749075 -30.93511916 320.52546527 -30.93938255 312.79343224 C-30.93997774 311.69433008 -30.94057293 310.59522792 -30.94118616 309.46281963 C-30.94239787 307.23018108 -30.94361201 304.99754253 -30.94482853 302.76490398 C-30.95571511 281.80758021 -30.95353659 260.8502725 -30.94744369 239.89294782 C-30.94227635 220.71557204 -30.95352314 201.53824709 -30.97254191 182.36088137 C-30.99191022 162.68044698 -31.00017789 143.00003664 -30.99641865 123.31959265 C-30.99450472 112.26629095 -30.99701267 101.21303248 -31.01113319 90.15973854 C-31.02303531 80.74742833 -31.0244652 71.33518796 -31.01234303 61.92287681 C-31.00644547 57.1199125 -31.00537904 52.31707598 -31.01734543 47.5141201 C-31.02817452 43.11651752 -31.02513633 38.71914989 -31.01108374 34.32155844 C-31.00842855 32.73134146 -31.01082911 31.14110624 -31.01881961 29.55090711 C-31.10141977 11.88505166 -31.10141977 11.88505166 -25.1953125 5.0703125 C-17.96788676 -1.09944118 -9.35146001 -3.96812695 0 0 Z " fill="#1FAB7F" transform="translate(466.6328125,588.1171875)"/>
<path d="M0 0 C0.99 0 1.98 0 3 0 C3.00219984 1.48370936 3.00219984 1.48370936 3.00444412 2.99739265 C3.04102953 27.05879761 3.10046655 51.12006326 3.18390274 75.18135262 C3.22372205 86.81719318 3.25609987 98.45296583 3.27099609 110.08886719 C3.28399759 120.23002545 3.31092389 130.37103447 3.35461307 140.51210868 C3.37726158 145.88238541 3.39290864 151.25247782 3.39188385 156.62280655 C3.39113925 161.67733398 3.40900979 166.73145342 3.44116783 171.78587532 C3.44968779 173.64100217 3.45140258 175.49617467 3.44580269 177.35131264 C3.43917275 179.88516826 3.45705834 182.417722 3.48101807 184.95144653 C3.47325765 185.68492251 3.46549723 186.41839848 3.45750165 187.174101 C3.54254362 192.25720219 4.98766764 194.98578102 8 199 C8 199.66 8 200.32 8 201 C8.66 201 9.32 201 10 201 C9.505 201.99 9.505 201.99 9 203 C4.20451309 198.59333635 1.28983112 194.90942294 0.63085651 188.29441261 C0.6183601 186.88477374 0.62217121 185.4749291 0.63923645 184.06533813 C0.63539154 182.89383589 0.63539154 182.89383589 0.63146895 181.69866693 C0.62654213 179.09137925 0.64300551 176.48467541 0.65942383 173.87744141 C0.66027034 172.00465916 0.65979449 170.13187591 0.65809631 168.25909424 C0.65723588 163.1810117 0.6748696 158.10314193 0.69581819 153.02510881 C0.71457682 147.71599946 0.71633479 142.40688518 0.71989441 137.0977478 C0.72921725 127.04684908 0.75383433 116.9960483 0.78394288 106.94519269 C0.81747939 95.50151241 0.83397103 84.05782743 0.84902918 72.61411023 C0.88038362 49.0760192 0.93314884 25.53801509 1 2 C0.34 1.67 -0.32 1.34 -1 1 C-0.67 0.67 -0.34 0.34 0 0 Z " fill="#1B9D6F" transform="translate(701,810)"/>
<path d="M0 0 C0.99 0 1.98 0 3 0 C3 0.66 3 1.32 3 2 C2.34 2 1.68 2 1 2 C1.00368717 2.98913958 1.00737434 3.97827915 1.01117325 4.99739265 C1.09994785 29.05867667 1.16569179 53.11993946 1.20724869 77.18135262 C1.22787915 88.81724999 1.25600912 100.45303922 1.30175781 112.08886719 C1.34161061 122.22994841 1.36742929 132.37095132 1.37635398 142.51210868 C1.38157133 147.88243992 1.39384429 153.25254709 1.42292023 158.62280655 C1.45006459 163.6772463 1.45844691 168.73136961 1.45243073 173.78587532 C1.45353139 175.64103858 1.46149106 177.4962124 1.4768219 179.35131264 C1.49673469 181.88507914 1.49193483 184.4176522 1.48101807 186.95144653 C1.49266943 187.68492251 1.5043208 188.41839848 1.51632524 189.174101 C1.45744664 194.23263983 0.18267009 197.10505151 -3 201 C-5.25 202.375 -5.25 202.375 -7 203 C-5.25 198.125 -5.25 198.125 -3 197 C-1.82714287 192.97181711 -1.86540797 188.99680379 -1.84851074 184.82475281 C-1.84427833 184.11306452 -1.84004592 183.40137623 -1.83568525 182.66812164 C-1.82269353 180.28875533 -1.81664218 177.90942251 -1.81054688 175.5300293 C-1.80260099 173.82128192 -1.79421275 172.11253654 -1.78541565 170.40379333 C-1.76736951 166.72450534 -1.75234915 163.04522174 -1.73963928 159.36591148 C-1.71936891 153.5348314 -1.69171767 147.70380052 -1.66296387 141.87275696 C-1.60289115 129.47769454 -1.55113637 117.08260198 -1.5 104.6875 C-1.44482062 91.34226759 -1.38802598 77.99705032 -1.32245111 64.65186435 C-1.29431182 58.87003696 -1.27063992 53.08821456 -1.25052643 47.30635393 C-1.23700204 43.68585683 -1.21959776 40.06538543 -1.20121574 36.44491005 C-1.19355283 34.78263637 -1.1874438 33.12035457 -1.18312263 31.45806885 C-1.15473514 20.93520157 -0.7753172 10.49503833 0 0 Z " fill="#1AC686" transform="translate(527,809)"/>
<path d="M0 0 C0.66 0.33 1.32 0.66 2 1 C1.96189731 12.07504247 1.90246872 23.1497481 1.81609726 34.22452545 C1.77665182 39.36746972 1.74444889 44.51024352 1.72900391 49.65332031 C1.7138181 54.62021597 1.67933817 59.58664287 1.63169098 64.55332947 C1.61689706 66.44461484 1.60896013 68.33596714 1.60811615 70.22731018 C1.60573873 72.88446551 1.57859762 75.54033352 1.54589844 78.19726562 C1.5509288 78.97266693 1.55595917 79.74806824 1.56114197 80.54696655 C1.45242248 86.28749698 -0.15901414 90.01449275 -3 95 C-3.33 94.01 -3.66 93.02 -4 92 C-3.5453109 91.15783684 -3.5453109 91.15783684 -3.08143616 90.29866028 C-1.53203605 87.00531331 -1.69989422 83.79092348 -1.69702148 80.22143555 C-1.68858215 79.44205627 -1.68014282 78.662677 -1.67144775 77.85968018 C-1.64567743 75.28535339 -1.63352755 72.71114147 -1.62109375 70.13671875 C-1.60491265 68.34315592 -1.58773201 66.54960186 -1.56959534 64.75605774 C-1.52390307 60.03235952 -1.4891116 55.30864936 -1.45739746 50.58483887 C-1.40554788 43.03483958 -1.34009755 35.4849707 -1.26918221 27.93512917 C-1.24645459 25.30349984 -1.23011162 22.67188661 -1.21446228 20.04020691 C-1.20104431 18.41571889 -1.18742855 16.79123249 -1.17358398 15.16674805 C-1.17097061 14.44078934 -1.16835724 13.71483063 -1.16566467 12.96687317 C-1.12112394 8.5416055 -0.7125437 4.35490298 0 0 Z " fill="#199C6E" transform="translate(793,915)"/>
<path d="M0 0 C0.81042252 -0.00014603 1.62084503 -0.00029205 2.45582581 -0.0004425 C5.11787654 0.00025068 7.77985612 0.00801516 10.44189453 0.01586914 C12.29419924 0.01773543 14.14650444 0.01915834 15.99880981 0.02015686 C20.86166764 0.02396542 25.72449534 0.03378147 30.58734131 0.04486084 C35.55447991 0.05511073 40.52162339 0.05966214 45.48876953 0.06469727 C55.22576189 0.07540527 64.96273195 0.09246168 74.69970703 0.11352539 C74.69970703 0.44352539 74.69970703 0.77352539 74.69970703 1.11352539 C73.65623108 1.13414032 72.61275513 1.15475525 71.53765869 1.17599487 C61.70829477 1.37142988 51.87918501 1.57689457 42.05023575 1.7922039 C36.99695768 1.902576 31.94365628 2.00940173 26.89013672 2.1081543 C22.01405475 2.2035695 17.13825241 2.30825902 12.26250458 2.41940689 C10.40143539 2.46019619 8.54028962 2.49763194 6.67908478 2.53167343 C4.07402345 2.57989067 1.46948844 2.63997952 -1.13525391 2.70288086 C-1.90633484 2.71439178 -2.67741577 2.72590271 -3.47186279 2.73776245 C-7.27269283 2.84223046 -10.02731424 3.15208789 -13.30029297 5.11352539 C-15.53888489 5.55151077 -17.79128784 5.92226467 -20.05029297 6.23852539 C-21.22076172 6.40610352 -22.39123047 6.57368164 -23.59716797 6.74633789 C-24.48919922 6.86750977 -25.38123047 6.98868164 -26.30029297 7.11352539 C-26.30029297 6.45352539 -26.30029297 5.79352539 -26.30029297 5.11352539 C-24.42729272 4.46191527 -22.55178747 3.81750344 -20.67529297 3.17602539 C-19.63115234 2.81637695 -18.58701172 2.45672852 -17.51123047 2.08618164 C-11.66310938 0.31467051 -6.07929414 -0.02896699 0 0 Z " fill="#28B489" transform="translate(917.30029296875,586.886474609375)"/>
<path d="M0 0 C-6.76282386 5.2321809 -14.0759413 4.54752259 -22.234375 4.4609375 C-23.71933838 4.45855023 -25.20430481 4.45764835 -26.68927002 4.4581604 C-29.78929769 4.45504388 -32.88885909 4.43856167 -35.98876953 4.41162109 C-39.9623545 4.37752358 -43.93543118 4.36999652 -47.90914536 4.37151146 C-50.97006074 4.37096798 -54.03086502 4.36000638 -57.09174347 4.34550858 C-58.55736705 4.33914723 -60.02300319 4.33520323 -61.48863983 4.33372116 C-63.53251174 4.32938803 -65.57633638 4.31030486 -67.62011719 4.29052734 C-68.78258972 4.28290375 -69.94506226 4.27528015 -71.14276123 4.26742554 C-74 4 -74 4 -77 2 C-53.9 2 -30.8 2 -7 2 C-7 1.34 -7 0.68 -7 0 C-3.98968256 -0.93423645 -3.13349732 -1.04449911 0 0 Z " fill="#13976D" transform="translate(789,1011)"/>
<path d="M0 0 C0.495 0.99 0.495 0.99 1 2 C-1.39090496 7.15752356 -4.96986468 11.06582029 -9 15 C-12.31358236 19.00921026 -15.47973345 23.09517004 -18.25 27.5 C-20 30 -20 30 -23 31 C-23.020625 32.03125 -23.04125 33.0625 -23.0625 34.125 C-24.17533919 38.72473533 -25.66412991 40.04332288 -29.2109375 42.93359375 C-31 44 -31 44 -34 44 C-34.2475 44.53625 -34.495 45.0725 -34.75 45.625 C-36.30652537 48.5823982 -38.03435673 51.29724051 -40 54 C-40.66 54 -41.32 54 -42 54 C-40.2997821 50.07124789 -37.70943355 46.88411515 -35.0625 43.5625 C-34.33268921 42.63932983 -34.33268921 42.63932983 -33.58813477 41.69750977 C-29.84445387 36.99035945 -25.9750581 32.40068973 -22.06347656 27.83300781 C-17.99149097 23.05183986 -14.17063321 18.10010865 -10.37109375 13.1015625 C-6.9872846 8.67529485 -3.501767 4.33319213 0 0 Z " fill="#18C086" transform="translate(750,601)"/>
<path d="M0 0 C0.33 0 0.66 0 1 0 C1.17746327 14.62961772 1.34311592 29.25932951 1.49477577 43.88923836 C1.56547105 50.68242007 1.64000538 57.47551885 1.72363281 64.26855469 C1.80432047 70.82367489 1.87423642 77.37885864 1.93757248 83.93416977 C1.96350413 86.43564693 1.99305078 88.9370893 2.02626419 91.43848038 C2.07215291 94.94089723 2.1052096 98.44321716 2.13525391 101.94580078 C2.1517952 102.98086258 2.16833649 104.01592438 2.18537903 105.08235168 C2.21524165 110.13805301 2.03243189 114.26687518 0 119 C-0.33 119 -0.66 119 -1 119 C-1.02336818 104.22260344 -1.04099845 89.44520933 -1.05181217 74.66779804 C-1.05696679 67.80627639 -1.06399362 60.94476623 -1.07543945 54.08325195 C-1.0864772 47.46321323 -1.0922823 40.84318331 -1.09487724 34.22313499 C-1.09672685 31.69574991 -1.1003386 29.1683655 -1.10573006 26.64098549 C-1.11297443 23.10479946 -1.11398949 19.56866295 -1.11352539 16.0324707 C-1.11712067 14.98446289 -1.12071594 13.93645508 -1.12442017 12.85668945 C-1.1230455 11.89060257 -1.12167084 10.92451569 -1.12025452 9.92915344 C-1.12117631 9.09308721 -1.1220981 8.25702097 -1.12304783 7.39561939 C-0.99226912 4.84948745 -0.55824805 2.48462741 0 0 Z " fill="#19AA73" transform="translate(792,694)"/>
<path d="M0 0 C0.33 0 0.66 0 1 0 C2.01014413 17.17245014 -5.66461787 32.79480116 -16 46 C-18.24697721 48.33447013 -20.36205415 50.10756058 -23 52 C-22.49396008 49.83125748 -22.00016187 48.00032373 -21 46 C-20.01 46 -19.02 46 -18 46 C-17.9175 45.05125 -17.835 44.1025 -17.75 43.125 C-17.5025 42.09375 -17.255 41.0625 -17 40 C-15.0625 38.9375 -15.0625 38.9375 -13 38 C-11.71745356 35.46229997 -11.71745356 35.46229997 -11 33 C-10.34 33 -9.68 33 -9 33 C-8.67 31.35 -8.34 29.7 -8 28 C-7.34 28 -6.68 28 -6 28 C-6.061875 27.319375 -6.12375 26.63875 -6.1875 25.9375 C-6 23 -6 23 -4.59375 19.84375 C-2.81523469 15.84116999 -2.03273613 11.86423822 -1.3125 7.5625 C-1.18294922 6.83095703 -1.05339844 6.09941406 -0.91992188 5.34570312 C-0.60570185 3.565123 -0.30175932 1.78273417 0 0 Z " fill="#17A074" transform="translate(1073,598)"/>
<path d="M0 0 C0.33 0 0.66 0 1 0 C1.05460454 2.18721529 1.0930633 4.37483631 1.125 6.5625 C1.14820313 7.78066406 1.17140625 8.99882813 1.1953125 10.25390625 C1 14 1 14 0 17.171875 C-1.15317999 21.58639214 -1.25415281 25.46404109 -1.1953125 29.99609375 C-1.1924826 30.82963882 -1.18965271 31.6631839 -1.18673706 32.52198792 C-1.17562289 35.1606436 -1.15053515 37.79894848 -1.125 40.4375 C-1.11495885 42.23632319 -1.10583499 44.03515175 -1.09765625 45.83398438 C-1.07571235 50.22278955 -1.04124387 54.61133548 -1 59 C-1.33 59 -1.66 59 -2 59 C-3.08621704 51.23004422 -3.21966611 43.50409375 -3.24023438 35.67358398 C-3.24987448 33.46624083 -3.28095206 31.25985767 -3.3125 29.05273438 C-3.38447264 19.04979278 -2.18779585 9.75516063 0 0 Z " fill="#C9F8EB" transform="translate(788,824)"/>
<path d="M0 0 C1.89563549 1.20260746 3.65427982 2.43382715 5.3671875 3.8828125 C2.3671875 3.8828125 2.3671875 3.8828125 0.6796875 2.90625 C-2.69146659 1.41428654 -6.01144185 1.51437295 -9.6328125 1.5078125 C-10.344375 1.48332031 -11.0559375 1.45882812 -11.7890625 1.43359375 C-15.29060438 1.41399557 -17.23151877 1.57156517 -20.03515625 3.74609375 C-21.7489571 6.03814525 -23.17972944 8.41888905 -24.6328125 10.8828125 C-25.1690625 11.3571875 -25.7053125 11.8315625 -26.2578125 12.3203125 C-28.27338713 14.61073822 -28.30345115 16.91856036 -28.6328125 19.8828125 C-28.9628125 19.8828125 -29.2928125 19.8828125 -29.6328125 19.8828125 C-30.16099862 13.967128 -29.52854806 10.55484204 -26.1328125 5.64453125 C-19.90931828 -1.66483306 -8.77896017 -3.72519675 0 0 Z " fill="#1CC48B" transform="translate(466.6328125,588.1171875)"/>
<path d="M0 0 C1.92055421 0.02010372 3.84112883 0.03834762 5.76171875 0.0546875 C10.42499125 0.09835783 15.08726543 0.16716924 19.75 0.25 C19.75 0.58 19.75 0.91 19.75 1.25 C18.68040039 1.26981934 17.61080078 1.28963867 16.50878906 1.31005859 C12.53524488 1.3862098 8.56206234 1.47491242 4.58886719 1.56738281 C2.87018989 1.60563327 1.15143362 1.64049303 -0.56738281 1.671875 C-3.0400004 1.71761128 -5.51207613 1.77559084 -7.984375 1.8359375 C-8.75118591 1.84748871 -9.51799683 1.85903992 -10.30804443 1.87094116 C-14.14434968 1.97674549 -16.94774416 2.26405472 -20.25 4.25 C-22.48859193 4.68798538 -24.74099487 5.05873928 -27 5.375 C-28.17046875 5.54257812 -29.3409375 5.71015625 -30.546875 5.8828125 C-31.43890625 6.00398437 -32.3309375 6.12515625 -33.25 6.25 C-33.25 5.59 -33.25 4.93 -33.25 4.25 C-22.37161955 -0.76774491 -11.72411816 -0.21460137 0 0 Z " fill="#18C48A" transform="translate(924.25,587.75)"/>
<path d="M0 0 C1.22419163 3.93795909 0.48320272 6.16112237 -1 10 C-1.66 10 -2.32 10 -3 10 C-2.979375 11.258125 -2.95875 12.51625 -2.9375 13.8125 C-2.89113917 16.64051087 -3.08307039 18.24921116 -4 21 C-4.66 21 -5.32 21 -6 21 C-5.88590318 23.10478604 -5.75834639 25.20884577 -5.625 27.3125 C-5.55539062 28.48425781 -5.48578125 29.65601563 -5.4140625 30.86328125 C-5.21386253 34.15699887 -5.21386253 34.15699887 -3 37 C-3.33 37.99 -3.66 38.98 -4 40 C-8.04587996 34.54685745 -8.44073255 29.29762389 -7.5625 22.7265625 C-6.00237399 14.69545927 -3.43453294 7.41207504 0 0 Z " fill="#1CB988" transform="translate(846,631)"/>
<path d="M0 0 C-1.28207359 2.86001033 -2.49151236 5.07039412 -5 7 C-6.32 7 -7.64 7 -9 7 C-9.12375 7.61875 -9.2475 8.2375 -9.375 8.875 C-10 11 -10 11 -12 13 C-12.99 13 -13.98 13 -15 13 C-15.2475 13.639375 -15.495 14.27875 -15.75 14.9375 C-17 17 -17 17 -19.125 17.75 C-20.053125 17.87375 -20.053125 17.87375 -21 18 C-18.06100597 13.11374145 -14.78129639 9.77253356 -10.375 6.1875 C-9.78976562 5.69830078 -9.20453125 5.20910156 -8.6015625 4.70507812 C-2.9268348 0 -2.9268348 0 0 0 Z " fill="#17C68A" transform="translate(877,600)"/>
<path d="M0 0 C0.33 1.32 0.66 2.64 1 4 C0.34 4 -0.32 4 -1 4 C-1.33 4.99 -1.66 5.98 -2 7 C-3.64126883 8.69168324 -5.31158125 10.35537309 -7 12 C-8.48292739 13.72920862 -9.9412464 15.47980602 -11.375 17.25 C-12.14457031 18.20003906 -12.91414062 19.15007813 -13.70703125 20.12890625 C-16.84354609 24.05622892 -19.93889181 28.0136694 -23 32 C-23.66 31.67 -24.32 31.34 -25 31 C-19.56698494 24.17179981 -14.07806873 17.39041286 -8.56958008 10.62304688 C-5.69772601 7.09406263 -2.83560099 3.55826629 0 0 Z " fill="#23B887" transform="translate(707,655)"/>
<path d="M0 0 C0.33 0 0.66 0 1 0 C1.33 10.56 1.66 21.12 2 32 C-1.33289379 27.55614162 -1.33772353 26.75447056 -1.07421875 21.484375 C-1.01943359 20.23398437 -0.96464844 18.98359375 -0.90820312 17.6953125 C-0.83537109 16.39335938 -0.76253906 15.09140625 -0.6875 13.75 C-0.62626953 12.43257812 -0.56503906 11.11515625 -0.50195312 9.7578125 C-0.34870587 6.5042554 -0.18084932 3.25212058 0 0 Z " fill="#43BA8F" transform="translate(784,850)"/>
<path d="M0 0 C1.65 0 3.3 0 5 0 C4.62488281 0.49628906 4.24976563 0.99257813 3.86328125 1.50390625 C1.25288493 4.96909229 -1.32591889 8.44462525 -3.8125 12 C-4.534375 12.99 -5.25625 13.98 -6 15 C-6.33 15 -6.66 15 -7 15 C-6.67 12.69 -6.34 10.38 -6 8 C-5.195625 7.79375 -4.39125 7.5875 -3.5625 7.375 C-2.716875 6.92125 -1.87125 6.4675 -1 6 C-0.10169161 2.94727535 -0.10169161 2.94727535 0 0 Z " fill="#13C088" transform="translate(644,875)"/>
<path d="M0 0 C0.66 0 1.32 0 2 0 C2.33 0.99 2.66 1.98 3 3 C1.42699586 5.36097631 -0.15210242 7.49902461 -1.9375 9.6875 C-2.41896484 10.29400391 -2.90042969 10.90050781 -3.39648438 11.52539062 C-4.58849658 13.02425746 -5.79308951 14.51310325 -7 16 C-7.66 14.68 -8.32 13.36 -9 12 C-5.375 7.125 -5.375 7.125 -2 6 C-0.77479736 2.99152582 -0.77479736 2.99152582 0 0 Z " fill="#13C687" transform="translate(676,835)"/>
<path d="M0 0 C-2.05927956 0.98592155 -4.12256688 1.96347494 -6.1875 2.9375 C-7.33605469 3.48277344 -8.48460937 4.02804687 -9.66796875 4.58984375 C-12.51466736 5.79460131 -14.96027845 6.54776271 -18 7 C-18 6.34 -18 5.68 -18 5 C-16.68 5 -15.36 5 -14 5 C-14 4.34 -14 3.68 -14 3 C-12.68 3 -11.36 3 -10 3 C-10 2.34 -10 1.68 -10 1 C-6.16112237 -0.48320272 -3.93795909 -1.22419163 0 0 Z " fill="#159A70" transform="translate(1034,664)"/>
<path d="M0 0 C1.47728036 3.9394143 1.18855758 8.02502266 0 12 C-2.5625 15 -2.5625 15 -5 17 C-1.92482916 5.47835991 -1.92482916 5.47835991 0 0 Z " fill="#C9F7EA" transform="translate(794,805)"/>
<path d="M0 0 C0.66 0 1.32 0 2 0 C0.4169423 4.2742558 -2.50568404 6.26531794 -6 9 C-4.4722133 5.56247993 -2.49818944 2.81046312 0 0 Z M-8 9 C-7.34 9 -6.68 9 -6 9 C-7.29299694 11.88437779 -8.65941363 13.87219421 -11 16 C-11.66 15.67 -12.32 15.34 -13 15 C-11.38405168 12.95880212 -9.7143618 10.95927063 -8 9 Z " fill="#02BD79" transform="translate(949,634)"/>
<path d="M0 0 C1.8125 0.1875 1.8125 0.1875 4 1 C5.75 3.5625 5.75 3.5625 7 6 C5.35 6.33 3.7 6.66 2 7 C1.67 6.01 1.34 5.02 1 4 C0.34 3.67 -0.32 3.34 -1 3 C-0.67 2.01 -0.34 1.02 0 0 Z " fill="#03DC7E" transform="translate(546,689)"/>
<path d="M0 0 C0.66 0.33 1.32 0.66 2 1 C-1.75 4 -1.75 4 -4 4 C-4.4021875 5.175625 -4.4021875 5.175625 -4.8125 6.375 C-6 9 -6 9 -9 11 C-9.33 9.68 -9.66 8.36 -10 7 C-6.7 4.69 -3.4 2.38 0 0 Z " fill="#313B3F" transform="translate(909,799)"/>
<path d="M0 0 C-3.96 3.465 -3.96 3.465 -8 7 C-8.66 6.67 -9.32 6.34 -10 6 C-8.20404732 1.26521567 -5.07984355 -1.69328118 0 0 Z " fill="#19C48F" transform="translate(637,891)"/>
<path d="M0 0 C0 0.66 0 1.32 0 2 C-1.40751221 2.86916887 -2.8264521 3.71985149 -4.25 4.5625 C-5.03890625 5.03816406 -5.8278125 5.51382813 -6.640625 6.00390625 C-9.30844625 7.13022151 -10.34501768 7.0169313 -13 6 C-11.21118264 4.99491199 -9.41885304 3.99607264 -7.625 3 C-6.62726562 2.443125 -5.62953125 1.88625 -4.6015625 1.3125 C-2 0 -2 0 0 0 Z " fill="#1AB984" transform="translate(890,593)"/>
<path d="M0 0 C0.33 0.66 0.66 1.32 1 2 C-0.109375 4.34765625 -0.109375 4.34765625 -1.75 7.0625 C-2.28109375 7.96097656 -2.8121875 8.85945312 -3.359375 9.78515625 C-5 12 -5 12 -8 13 C-6.40956621 7.91061189 -3.2553049 4.12543357 0 0 Z " fill="#20BD8B" transform="translate(855,618)"/>
<path d="M0 0 C3.28788824 3.11016455 5.83735988 6.01618925 8 10 C7.34 10 6.68 10 6 10 C5.34 9.01 4.68 8.02 4 7 C3.01 7 2.02 7 1 7 C0.67 4.69 0.34 2.38 0 0 Z " fill="#1AC681" transform="translate(479,601)"/>
<path d="M0 0 C4.9227023 1.36741731 6.4257877 3.70964616 9 8 C9.98866506 9.34175973 10.9838154 10.67896002 12 12 C8.35865951 10.49917723 6.31243814 8.39379438 3.75 5.4375 C3.04359375 4.63183594 2.3371875 3.82617188 1.609375 2.99609375 C0 1 0 1 0 0 Z " fill="#23B687" transform="translate(589,885)"/>
<path d="M0 0 C4.875 4.75 4.875 4.75 6 7 C3.625 6.75 3.625 6.75 1 6 C-0.375 4.0625 -0.375 4.0625 -1 2 C-0.67 1.34 -0.34 0.68 0 0 Z " fill="#16CD8C" transform="translate(585,733)"/>
<path d="M0 0 C5.57142857 5.14285714 5.57142857 5.14285714 6 9 C6.66 9 7.32 9 8 9 C7.67 9.66 7.34 10.32 7 11 C3.17330957 7.57611908 1.27721526 4.99275057 0 0 Z " fill="#1B9C73" transform="translate(703,1002)"/>
<path d="M0 0 C1.0625 1.8125 1.0625 1.8125 2 4 C1 7 1 7 -1.0625 8.1875 C-1.701875 8.455625 -2.34125 8.72375 -3 9 C-3 7.35 -3 5.7 -3 4 C-2.34 3.67 -1.68 3.34 -1 3 C-0.67 2.01 -0.34 1.02 0 0 Z " fill="#253138" transform="translate(1006,868)"/>
<path d="M0 0 C0.33 0.66 0.66 1.32 1 2 C-1.17508418 6.69360269 -1.17508418 6.69360269 -4.1875 7.8125 C-4.785625 7.874375 -5.38375 7.93625 -6 8 C-2.25 2.25 -2.25 2.25 0 0 Z " fill="#15BC7E" transform="translate(862,610)"/>
<path d="M0 0 C0.268125 0.598125 0.53625 1.19625 0.8125 1.8125 C1.98493467 3.97224808 3.19369282 5.35790256 5 7 C4.67 7.66 4.34 8.32 4 9 C1.69 6.69 -0.62 4.38 -3 2 C-2.01 1.34 -1.02 0.68 0 0 Z " fill="#2D363A" transform="translate(892,900)"/>
<path d="M0 0 C0.99 0 1.98 0 3 0 C4 2 4 2 3.0625 5.125 C2.711875 6.07375 2.36125 7.0225 2 8 C1.34 7.67 0.68 7.34 0 7 C0 4.69 0 2.38 0 0 Z " fill="#2C353B" transform="translate(875,865)"/>
<path d="M0 0 C0.66 0.33 1.32 0.66 2 1 C0.38405168 3.04119788 -1.2856382 5.04072937 -3 7 C-3.66 7 -4.32 7 -5 7 C-3.75023244 3.34683329 -3.32901247 2.21934164 0 0 Z " fill="#23C494" transform="translate(525,1005)"/>
<path d="M0 0 C0.99 0.99 1.98 1.98 3 3 C2.67 3.99 2.34 4.98 2 6 C-0.475 5.01 -0.475 5.01 -3 4 C-2.34 3.67 -1.68 3.34 -1 3 C-0.67 2.01 -0.34 1.02 0 0 Z " fill="#28313A" transform="translate(910,913)"/>
<path d="M0 0 C0.33 1.32 0.66 2.64 1 4 C0.34 4 -0.32 4 -1 4 C-1.33 4.99 -1.66 5.98 -2 7 C-2.99 7.33 -3.98 7.66 -5 8 C-3.8141763 4.62496331 -2.72426311 2.35277269 0 0 Z " fill="#22C792" transform="translate(707,655)"/>
<path d="M0 0 C0.66 0.33 1.32 0.66 2 1 C0.35830472 3.02054804 -1.30911778 5.02043058 -3 7 C-3.33 7 -3.66 7 -4 7 C-4 5.35 -4 3.7 -4 2 C-2.125 0.9375 -2.125 0.9375 0 0 Z " fill="#19BD86" transform="translate(683,830)"/>
</svg>
