<svg width="890" height="832" xmlns="http://www.w3.org/2000/svg">

 <g>
  <title>Layer 1</title>
  <path id="svg_2" fill="rgba(249,249,251,1.000)" d="m335.9,294.99c-14.28,-4.67 -30.43,-4.5 -44.25,1.63c-13.9,5.91 -25.12,17.63 -30.13,31.91c-7.33,19.65 -1.69,43.09 13.47,57.48c10.17,10.16 24.65,16.04 39,16.19c11.67,0.5 23.29,-2.99 33.22,-8.99c11.04,-7.18 20.26,-18.48 23.59,-31.35c3.09,-10.49 2.51,-21.3 -0.24,-31.78c14.17,-10.8 29.89,-19.07 47.31,-23.15c24.13,-5.54 50.28,-4.17 73.43,4.8c11.95,4.46 22.72,12.58 35.04,16.94c10.08,3.47 20.52,3.82 31.03,2.68c18.83,-2.46 36.55,-12.82 47.77,-28.22c14.6,-19.36 16.97,-46.86 6.31,-68.57c-6.34,-11.65 -16.01,-21.98 -27.79,-28.24c-12.37,-7 -25.19,-13.33 -38.4,-18.59c-17.42,-6.35 -34.89,-11.78 -53.25,-14.69c-9.96,-1.32 -20.01,-2.67 -30.03,-3.42c-10.28,-0.35 -20.59,-0.43 -30.86,0.06c-19.16,1.78 -37.6,3.8 -56.15,9.25c-11.81,3.37 -23.53,7.36 -34.84,12.17c-13.88,6.4 -27.47,13.31 -40.16,21.86c-5.42,3.38 -10.22,7.82 -16.96,7.79c-7.3,0.55 -14.45,-3.35 -18.2,-9.56c-3.25,-5.51 -3.62,-13.02 -0.14,-18.51c2.72,-4.76 7.07,-7.56 11.56,-10.44c8.28,-5.16 16.27,-10.6 24.99,-15.01c25.61,-13.96 53.36,-24.22 81.95,-30.04c29.54,-6.7 59.72,-7.96 89.86,-5.74c15.78,1.28 31.34,4.04 46.69,7.87c36.27,8.39 70.97,24.21 101.49,45.48c26.02,18.01 49.59,40.06 68.52,65.47c14.8,19.14 27.21,40.28 36.3,62.72c10.03,22.65 15.74,46.27 19.56,70.68c2.61,17.97 3.88,35.73 2.73,53.89c-0.98,6.07 -0.52,12.19 -1.43,18.26c-5.15,0.81 -10.44,1.33 -15.5,2.55c-17.43,4.4 -33.21,14.55 -44.64,28.4c-8.82,11.12 -14.87,24.63 -16.97,38.69c-0.58,6.06 -0.58,12.33 -0.17,18.4c3.34,28.05 22.95,52.68 48.59,63.96c17.06,7.65 37.04,8.8 55.08,4.27c20.78,-5.61 39.25,-19.03 50.04,-37.77c7.4,-11.43 10.49,-24.85 10.97,-38.32c-0.37,-10.22 -2,-20.8 -6.04,-30.26c-3.42,-7.78 -7.97,-15.07 -13.39,-21.61c-5.37,-6.38 -12.65,-11.32 -19.44,-16.12c2.67,-21.28 3.97,-42.57 2.35,-64c-0.66,-18.49 -4.04,-36.25 -7.64,-54.33c-3.52,-14.22 -7.59,-28.47 -12.56,-42.25c-3.9,-9.39 -7.64,-18.88 -12.02,-28.06c-4.43,-8.48 -8.98,-16.91 -13.73,-25.21c-7.31,-11.56 -14.54,-23.11 -23.14,-33.78c-8.98,-12.59 -19.56,-23.68 -30.47,-34.59c-19.58,-19.95 -41.84,-36.75 -65.62,-51.39c-12.98,-7.68 -26.4,-14.62 -40.11,-20.9c-21.94,-9.54 -44.44,-17.27 -67.89,-22.16c-17.31,-4.09 -34.9,-6.45 -52.62,-7.77c-12.38,-0.38 -24.56,-1.5 -36.97,-0.46c-17.03,0.43 -34.07,2.11 -50.85,5.06c-30.53,5.88 -60.07,14.35 -88.18,27.8c-15.18,6.96 -29.82,15.04 -43.78,24.22c-7,4.81 -14.19,8.63 -20.14,14.86c-8.35,7.94 -14.34,18.01 -17.91,28.92c-5.83,19.69 -1.49,41.67 11.01,57.89c10.26,12.59 24.66,21.99 40.61,25.41c11.55,2.57 23.48,2.72 34.91,-0.57c11.84,-2.92 20.98,-9.42 30.8,-16.23c20.79,-13.35 44.46,-22.72 68.46,-28.41c15.81,-3.57 31.88,-5.11 48.07,-5.16c18.12,0.32 36.56,2.21 54.04,7.18c16.8,4.86 33.15,10.95 48.54,19.35c3.86,2.17 8.51,4.21 11.6,7.39c6.21,6.22 7.24,17.38 2.17,24.55c-4.17,5.28 -10.45,8.96 -17.36,8.48c-6.69,0.04 -11.2,-4.1 -16.81,-7.03c-9.2,-4.81 -18.73,-9.17 -28.6,-12.41c-24.92,-7.86 -51.3,-10.67 -77.24,-7.07c-26.32,3.15 -51.71,12.61 -73.82,27.18c-5.08,3.22 -9.75,6.96 -14.62,10.47z"/>
  <path id="svg_3" fill="rgba(249,249,251,1.000)" d="m557.07,553.06c11.02,4.44 23.72,5.45 35.23,2.42c13.16,-3.91 25.07,-10.76 32.93,-22.29c5.64,-8.91 9.91,-18.49 10.26,-29.19c0.5,-9.25 -1.66,-18.32 -5.91,-26.52c-5.73,-12.15 -16.1,-21.58 -28.57,-26.5c-23.14,-10.31 -52.47,-2.94 -68.37,16.66c-7.37,9.42 -11.88,21.35 -12.04,33.36c-0.17,5.57 1.24,11.4 2.37,16.85c-12.92,10.45 -28.09,17.29 -43.94,21.98c-23.23,5.9 -48.68,5.45 -71.37,-2.53c-5.84,-1.91 -11.5,-4.5 -17.08,-7.06c-6.47,-3.19 -12.32,-7.21 -19.13,-9.75c-12.9,-4.88 -27.53,-5.37 -40.98,-2.8c-18.22,3.77 -34.85,15.19 -44.84,30.9c-3.99,6.83 -7.5,13.54 -8.9,21.42c-2.72,13.91 -1.76,29.7 4.87,42.44c5.52,11.02 14.63,20.64 25.38,26.67c6.53,3.87 12.97,7.79 19.88,10.96c9.91,4.37 19.28,9.16 29.64,12.54c10.93,3.56 22.14,7.08 33.34,9.61c13.63,2.98 27.59,4.81 41.52,5.4c17.57,1.69 34.52,0.27 51.97,-1.52c21.91,-3.02 43.23,-8.98 63.85,-16.92c11.51,-5.21 23.44,-10.12 34.19,-16.77c5.85,-3.49 11.79,-6.72 17.29,-10.77c3.42,-2.54 7.11,-4.26 11.36,-4.87c11.48,-2.23 23.05,8.76 22.37,20.21c-0.5,5.71 -3.29,11.04 -8.04,14.34c-10.09,7.1 -20.59,13.75 -31.5,19.52c-9.23,4.43 -18.24,9.55 -27.77,13.26c-12.48,4.82 -25.27,9.74 -38.24,12.94c-31.47,8.51 -64.29,12 -96.85,10.16c-18.84,-1.23 -37.42,-4.39 -55.82,-8.57c-15.14,-3.43 -29.22,-8.82 -43.76,-14.13c-14.78,-6.33 -29.38,-13.4 -43.07,-21.85c-9.95,-5.76 -19.2,-12.75 -28.47,-19.53c-9.99,-7.61 -19.29,-15.97 -28.31,-24.68c-5.04,-5.62 -10.54,-10.83 -15.36,-16.64c-10.39,-11.81 -19.82,-24.59 -28.01,-38.02c-6.97,-10.4 -12.08,-22.1 -17.7,-33.27c-6.65,-15.22 -12.19,-31.34 -16.39,-47.41c-3.94,-18.21 -7.15,-36.42 -7.91,-55.08c-1.28,-15.59 0.52,-30.45 1.48,-45.74c6,-1.09 11.79,-1.22 17.65,-2.95c10.91,-3.12 21.8,-8.07 30.42,-15.57c13.23,-10.21 22.5,-24.88 27.31,-40.79c6,-21.94 1.15,-47.37 -12.37,-65.67c-4.16,-5.42 -8.59,-10.81 -14.02,-14.98c-9.56,-7.55 -20.72,-14.05 -32.76,-16.53c-19.09,-4.35 -40.44,-2.79 -58.09,6.01c-9.54,5.09 -19.04,11.66 -25.9,20.11c-6.6,7.16 -11.38,16.12 -14.76,25.19c-5.89,14.92 -6.11,32.11 -1.62,47.43c5.42,17.44 16.86,32.69 31.91,43c1.98,1.69 4.62,2.18 3.87,5.41c-6.09,44.14 -2.9,89.44 9.22,132.32c2.45,8.21 4.61,16.46 7.89,24.41c5.81,16.25 13.64,31.86 21.81,47.07c13.81,23.92 30.34,46.62 49.37,66.65c12.06,12.91 25.46,24.73 39.2,35.81c5.33,4.02 10.58,8.21 16.19,11.83c6.71,4.36 12.97,9.2 20.05,12.98c7.64,4.45 15.07,9.13 23.16,12.77c7.7,3.32 14.74,7.57 22.61,10.45c11.08,4.45 22.37,8.41 33.7,12.21c19.24,5.43 38.88,9.59 58.66,12.5c13.54,1.65 27.19,2.74 40.83,2.72c11.69,0.06 23.51,0.26 35.15,-0.95c22.16,-1.16 44.53,-5.69 65.95,-11.38c6.32,-1.52 12.58,-3.25 18.69,-5.5c12,-4.37 24.36,-8.59 35.89,-14.1c9.14,-4.41 18.64,-8.53 27.27,-13.77c6.06,-3.69 12.3,-6.83 18.13,-10.88c8.52,-5.84 16.84,-10.45 23.55,-18.48c11.28,-12.31 17.19,-29 16.82,-45.63c-0.71,-11.6 -3.65,-23.43 -10.17,-33.18c-4.33,-6.35 -9.35,-12.96 -15.69,-17.4c-5.9,-4.37 -12.47,-7.98 -19.3,-10.67c-13.52,-4.78 -28.56,-5.43 -42.42,-1.71c-12.46,2.95 -24.32,10.94 -34.83,18.03c-7.78,5.18 -16.09,8.5 -24.46,12.51c-13.61,6.72 -29.01,10.69 -43.7,14.33c-29.64,6.66 -60.95,6.26 -90.56,-0.35c-15.84,-3.92 -32.33,-8.57 -46.94,-15.92c-6.53,-3.01 -12.94,-6.23 -19.09,-9.96c-5.71,-3.47 -10.01,-9.83 -9.63,-16.69c0.41,-11.32 11.22,-20.23 22.38,-18.99c7.57,0.69 12.7,5.46 19.4,8.6c14.63,7.14 30.29,13.13 46.39,15.84c28.91,5.15 58.61,4.11 86.67,-4.89c8.79,-2.88 17.11,-6.51 25.44,-10.5c6.61,-2.85 12.41,-6.79 18.52,-10.54c4.54,-2.78 8.36,-6.25 12.61,-9.43z"/>
  <path id="svg_4" fill="rgba(249,249,251,1.000)" d="m417.62,418.86c0.97,1.42 1.62,2.9 2.15,4.53c2.55,7.42 5.81,14.52 9.31,21.53c1.91,3.72 4.01,7.12 7.73,9.27c5.79,3.23 13.14,3.49 19.18,0.8c4.09,-1.92 6.8,-6.25 8.9,-10.08c3.29,-6.37 6.17,-12.95 8.4,-19.77c0.68,-2.1 1.54,-3.86 2.9,-5.61c1.05,13.17 -1.11,25.51 -3.04,38.44c-0.88,5.38 -0.62,11.4 3.23,15.63c6.12,7.21 17.47,8.5 26.06,5.9c5.43,-1.68 9.03,-5.85 10.97,-11.07c2.43,-6.76 3.2,-14.31 3.82,-21.43c1.13,-17.29 -0.25,-34.78 -3.18,-51.83c-1.79,-9.2 -4.19,-20.34 -10.97,-27.25c-8.38,-9.04 -24.54,-7.79 -33.53,-0.35c-11.65,10.59 -16.89,25.27 -21.98,39.73c-0.8,0.29 -1.21,0.14 -1.23,-0.47c-3.18,-10.3 -7.7,-20.47 -13.75,-29.42c-2.3,-3.27 -4.79,-6.54 -7.75,-9.23c-6.71,-5.8 -16.44,-7.99 -24.98,-5.54c-4.17,1.07 -7.95,3.16 -10.47,6.74c-7.45,10.4 -9.24,21.79 -10.9,34.16c-2.12,17.53 -3.16,35.9 -0.63,53.43c0.82,5.09 1.75,11.11 4.69,15.45c2.98,4.58 8.03,7.34 13.41,7.94c7.47,0.98 15.04,-0.51 20.75,-5.65c3.46,-3.07 4.61,-8.28 4.48,-12.72c-1.41,-14.63 -4.71,-28.3 -3.57,-43.13z"/>
  <path id="svg_5" fill="rgba(160,57,121,1.000)" d="m435,83.11c12.41,-1.04 24.59,0.08 36.97,0.46c17.72,1.32 35.31,3.68 52.62,7.77c23.45,4.89 45.95,12.62 67.89,22.16c13.71,6.28 27.13,13.22 40.11,20.9c23.78,14.64 46.04,31.44 65.62,51.39c10.91,10.91 21.49,22 30.47,34.59c8.6,10.67 15.83,22.22 23.14,33.78c4.75,8.3 9.3,16.73 13.73,25.21c4.38,9.18 8.12,18.67 12.02,28.06c4.97,13.78 9.04,28.03 12.56,42.25c3.6,18.08 6.98,35.84 7.64,54.33c1.62,21.43 0.32,42.72 -2.35,64c6.79,4.8 14.07,9.74 19.44,16.12c5.42,6.54 9.97,13.83 13.39,21.61c4.04,9.46 5.67,20.04 6.04,30.26c-0.48,13.47 -3.57,26.89 -10.97,38.32c-10.79,18.74 -29.26,32.16 -50.04,37.77c-18.04,4.53 -38.02,3.38 -55.08,-4.27c-25.64,-11.28 -45.25,-35.91 -48.59,-63.96c-0.41,-6.07 -0.41,-12.34 0.17,-18.4c2.1,-14.06 8.15,-27.57 16.97,-38.69c11.43,-13.85 27.21,-24 44.64,-28.4c5.06,-1.22 10.35,-1.74 15.5,-2.55c0.91,-6.07 0.45,-12.19 1.43,-18.26c1.15,-18.16 -0.12,-35.92 -2.73,-53.89c-3.82,-24.41 -9.53,-48.03 -19.56,-70.68c-9.09,-22.44 -21.5,-43.58 -36.3,-62.72c-18.93,-25.41 -42.5,-47.46 -68.52,-65.47c-30.52,-21.27 -65.22,-37.09 -101.49,-45.48c-15.35,-3.83 -30.91,-6.59 -46.69,-7.87c-30.14,-2.22 -60.32,-0.96 -89.86,5.74c-28.59,5.82 -56.34,16.08 -81.95,30.04c-8.72,4.41 -16.71,9.85 -24.99,15.01c-4.49,2.88 -8.84,5.68 -11.56,10.44c-3.48,5.49 -3.11,13 0.14,18.51c3.75,6.21 10.9,10.11 18.2,9.56c6.74,0.03 11.54,-4.41 16.96,-7.79c12.69,-8.55 26.28,-15.46 40.16,-21.86c11.31,-4.81 23.03,-8.8 34.84,-12.17c18.55,-5.45 36.99,-7.47 56.15,-9.25c10.27,-0.49 20.58,-0.41 30.86,-0.06c10.02,0.75 20.07,2.1 30.03,3.42c18.36,2.91 35.83,8.34 53.25,14.69c13.21,5.26 26.03,11.59 38.4,18.59c11.78,6.26 21.45,16.59 27.79,28.24c10.66,21.71 8.29,49.21 -6.31,68.57c-11.22,15.4 -28.94,25.76 -47.77,28.22c-10.51,1.14 -20.95,0.79 -31.03,-2.68c-12.32,-4.36 -23.09,-12.48 -35.04,-16.94c-23.15,-8.97 -49.3,-10.34 -73.43,-4.8c-17.42,4.08 -33.14,12.35 -47.31,23.15c2.75,10.48 3.33,21.29 0.24,31.78c-3.33,12.87 -12.55,24.17 -23.59,31.35c-9.93,6 -21.55,9.49 -33.22,8.99c-14.35,-0.15 -28.83,-6.03 -39,-16.19c-15.16,-14.39 -20.8,-37.83 -13.47,-57.48c5.01,-14.28 16.23,-26 30.13,-31.91c13.82,-6.13 29.97,-6.3 44.25,-1.63c4.87,-3.51 9.54,-7.25 14.62,-10.47c22.11,-14.57 47.5,-24.03 73.82,-27.18c25.94,-3.6 52.32,-0.79 77.24,7.07c9.87,3.24 19.4,7.6 28.6,12.41c5.61,2.93 10.12,7.07 16.81,7.03c6.91,0.48 13.19,-3.2 17.36,-8.48c5.07,-7.17 4.04,-18.33 -2.17,-24.55c-3.09,-3.18 -7.74,-5.22 -11.6,-7.39c-15.39,-8.4 -31.74,-14.49 -48.54,-19.35c-17.48,-4.97 -35.92,-6.86 -54.04,-7.18c-16.19,0.05 -32.26,1.59 -48.07,5.16c-24,5.69 -47.67,15.06 -68.46,28.41c-9.82,6.81 -18.96,13.31 -30.8,16.23c-11.43,3.29 -23.36,3.14 -34.91,0.57c-15.95,-3.42 -30.35,-12.82 -40.61,-25.41c-12.5,-16.22 -16.84,-38.2 -11.01,-57.89c3.57,-10.91 9.56,-20.98 17.91,-28.92c5.95,-6.23 13.14,-10.05 20.14,-14.86c13.96,-9.18 28.6,-17.26 43.78,-24.22c28.11,-13.45 57.65,-21.92 88.18,-27.8c16.78,-2.95 33.82,-4.63 50.85,-5.06z"/>
  <path id="svg_6" fill="rgba(160,57,121,1.000)" d="m783.62,538.19c0.3,0.89 0.61,1.77 0.91,2.66c-0.11,-3.59 -0.12,-7.16 -0.06,-10.75c-0.28,1.26 -0.56,2.53 -0.84,3.79c0.26,-7.34 -2.67,-13.65 -7.61,-18.93c-9.12,-10.31 -24.59,-14.28 -37.2,-8.13c-12.31,4.91 -20.58,17.96 -19.49,31.22c1.32,15.27 14.46,28.14 29.84,28.86c16.53,1.68 34.19,-11.52 34.45,-28.72z"/>
  <path id="svg_7" fill="rgba(57,14,110,1.000)" d="m162.9,235.8c12.04,2.48 23.2,8.98 32.76,16.53c5.43,4.17 9.86,9.56 14.02,14.98c13.52,18.3 18.37,43.73 12.37,65.67c-4.81,15.91 -14.08,30.58 -27.31,40.79c-8.62,7.5 -19.51,12.45 -30.42,15.57c-5.86,1.73 -11.65,1.86 -17.65,2.95c-0.96,15.29 -2.76,30.15 -1.48,45.74c0.76,18.66 3.97,36.87 7.91,55.08c4.2,16.07 9.74,32.19 16.39,47.41c5.62,11.17 10.73,22.87 17.7,33.27c8.19,13.43 17.62,26.21 28.01,38.02c4.82,5.81 10.32,11.02 15.36,16.64c9.02,8.71 18.32,17.07 28.31,24.68c9.27,6.78 18.52,13.77 28.47,19.53c13.69,8.45 28.29,15.52 43.07,21.85c14.54,5.31 28.62,10.7 43.76,14.13c18.4,4.18 36.98,7.34 55.82,8.57c32.56,1.84 65.38,-1.65 96.85,-10.16c12.97,-3.2 25.76,-8.12 38.24,-12.94c9.53,-3.71 18.54,-8.83 27.77,-13.26c10.91,-5.77 21.41,-12.42 31.5,-19.52c4.75,-3.3 7.54,-8.63 8.04,-14.34c0.68,-11.45 -10.89,-22.44 -22.37,-20.21c-4.25,0.61 -7.94,2.33 -11.36,4.87c-5.5,4.05 -11.44,7.28 -17.29,10.77c-10.75,6.65 -22.68,11.56 -34.19,16.77c-20.62,7.94 -41.94,13.9 -63.85,16.92c-17.45,1.79 -34.4,3.21 -51.97,1.52c-13.93,-0.59 -27.89,-2.42 -41.52,-5.4c-11.2,-2.53 -22.41,-6.05 -33.34,-9.61c-10.36,-3.38 -19.73,-8.17 -29.64,-12.54c-6.91,-3.17 -13.35,-7.09 -19.88,-10.96c-10.75,-6.03 -19.86,-15.65 -25.38,-26.67c-6.63,-12.74 -7.59,-28.53 -4.87,-42.44c1.4,-7.88 4.91,-14.59 8.9,-21.42c9.99,-15.71 26.62,-27.13 44.84,-30.9c13.45,-2.57 28.08,-2.08 40.98,2.8c6.81,2.54 12.66,6.56 19.13,9.75c5.58,2.56 11.24,5.15 17.08,7.06c22.69,7.98 48.14,8.43 71.37,2.53c15.85,-4.69 31.02,-11.53 43.94,-21.98c-1.13,-5.45 -2.54,-11.28 -2.37,-16.85c0.16,-12.01 4.67,-23.94 12.04,-33.36c15.9,-19.6 45.23,-26.97 68.37,-16.66c12.47,4.92 22.84,14.35 28.57,26.5c4.25,8.2 6.41,17.27 5.91,26.52c-0.35,10.7 -4.62,20.28 -10.26,29.19c-7.86,11.53 -19.77,18.38 -32.93,22.29c-11.51,3.03 -24.21,2.02 -35.23,-2.42c-4.25,3.18 -8.07,6.65 -12.61,9.43c-6.11,3.75 -11.91,7.69 -18.52,10.54c-8.33,3.99 -16.65,7.62 -25.44,10.5c-28.06,9 -57.76,10.04 -86.67,4.89c-16.1,-2.71 -31.76,-8.7 -46.39,-15.84c-6.7,-3.14 -11.83,-7.91 -19.4,-8.6c-11.16,-1.24 -21.97,7.67 -22.38,18.99c-0.38,6.86 3.92,13.22 9.63,16.69c6.15,3.73 12.56,6.95 19.09,9.96c14.61,7.35 31.1,12 46.94,15.92c29.61,6.61 60.92,7.01 90.56,0.35c14.69,-3.64 30.09,-7.61 43.7,-14.33c8.37,-4.01 16.68,-7.33 24.46,-12.51c10.51,-7.09 22.37,-15.08 34.83,-18.03c13.86,-3.72 28.9,-3.07 42.42,1.71c6.83,2.69 13.4,6.3 19.3,10.67c6.34,4.44 11.36,11.05 15.69,17.4c6.52,9.75 9.46,21.58 10.17,33.18c0.37,16.63 -5.54,33.32 -16.82,45.63c-6.71,8.03 -15.03,12.64 -23.55,18.48c-5.83,4.05 -12.07,7.19 -18.13,10.88c-8.63,5.24 -18.13,9.36 -27.27,13.77c-11.53,5.51 -23.89,9.73 -35.89,14.1c-6.11,2.25 -12.37,3.98 -18.69,5.5c-21.42,5.69 -43.79,10.22 -65.95,11.38c-11.64,1.21 -23.46,1.01 -35.15,0.95c-13.64,0.02 -27.29,-1.07 -40.83,-2.72c-19.78,-2.91 -39.42,-7.07 -58.66,-12.5c-11.33,-3.8 -22.62,-7.76 -33.7,-12.21c-7.87,-2.88 -14.91,-7.13 -22.61,-10.45c-8.09,-3.64 -15.52,-8.32 -23.16,-12.77c-7.08,-3.78 -13.34,-8.62 -20.05,-12.98c-5.61,-3.62 -10.86,-7.81 -16.19,-11.83c-13.74,-11.08 -27.14,-22.9 -39.2,-35.81c-19.03,-20.03 -35.56,-42.73 -49.37,-66.65c-8.17,-15.21 -16,-30.82 -21.81,-47.07c-3.28,-7.95 -5.44,-16.2 -7.89,-24.41c-12.12,-42.88 -15.31,-88.18 -9.22,-132.32c0.75,-3.23 -1.89,-3.72 -3.87,-5.41c-15.05,-10.31 -26.49,-25.56 -31.91,-43c-4.49,-15.32 -4.27,-32.51 1.62,-47.43c3.38,-9.07 8.16,-18.03 14.76,-25.19c6.86,-8.45 16.36,-15.02 25.9,-20.11c17.65,-8.8 39,-10.36 58.09,-6.01z"/>
  <path id="svg_8" fill="rgba(57,14,110,1.000)" d="m136.46,281.7c-8.48,1.55 -16.12,6.55 -21.12,13.54c-3.46,5.22 -5.32,11.52 -5.49,17.76c0.29,6.8 2.46,13.99 6.83,19.3c4.4,5.52 11.02,9.33 17.8,11.05c8.73,2.11 17.93,0.25 25.53,-4.39c5.84,-3.82 10.4,-9.73 12.76,-16.29c3.64,-11.21 0.97,-24.4 -8.26,-32.18c-7.33,-7.52 -17.8,-10.22 -28.05,-8.79z"/>
  <path id="svg_9" fill="rgba(249,249,251,1.000)" d="m136.46,281.7c10.25,-1.43 20.72,1.27 28.05,8.79c9.23,7.78 11.9,20.97 8.26,32.18c-2.36,6.56 -6.92,12.47 -12.76,16.29c-7.6,4.64 -16.8,6.5 -25.53,4.39c-6.78,-1.72 -13.4,-5.53 -17.8,-11.05c-4.37,-5.31 -6.54,-12.5 -6.83,-19.3c0.17,-6.24 2.03,-12.54 5.49,-17.76c5,-6.99 12.64,-11.99 21.12,-13.54z"/>
  <path id="svg_10" fill="rgba(57,14,110,1.000)" d="m424.84,368.18c2.96,2.69 5.45,5.96 7.75,9.23c6.05,8.95 10.57,19.12 13.75,29.42c0.02,0.61 0.43,0.76 1.23,0.47c5.09,-14.46 10.33,-29.14 21.98,-39.73c8.99,-7.44 25.15,-8.69 33.53,0.35c6.78,6.91 9.18,18.05 10.97,27.25c2.93,17.05 4.31,34.54 3.18,51.83c-0.62,7.12 -1.39,14.67 -3.82,21.43c-1.94,5.22 -5.54,9.39 -10.97,11.07c-8.59,2.6 -19.94,1.31 -26.06,-5.9c-3.85,-4.23 -4.11,-10.25 -3.23,-15.63c1.93,-12.93 4.09,-25.27 3.04,-38.44c-1.36,1.75 -2.22,3.51 -2.9,5.61c-2.23,6.82 -5.11,13.4 -8.4,19.77c-2.1,3.83 -4.81,8.16 -8.9,10.08c-6.04,2.69 -13.39,2.43 -19.18,-0.8c-3.72,-2.15 -5.82,-5.55 -7.73,-9.27c-3.5,-7.01 -6.76,-14.11 -9.31,-21.53c-0.53,-1.63 -1.18,-3.11 -2.15,-4.53c-1.14,14.83 2.16,28.5 3.57,43.13c0.13,4.44 -1.02,9.65 -4.48,12.72c-5.71,5.14 -13.28,6.63 -20.75,5.65c-5.38,-0.6 -10.43,-3.36 -13.41,-7.94c-2.94,-4.34 -3.87,-10.36 -4.69,-15.45c-2.53,-17.53 -1.49,-35.9 0.63,-53.43c1.66,-12.37 3.45,-23.76 10.9,-34.16c2.52,-3.58 6.3,-5.67 10.47,-6.74c8.54,-2.45 18.27,-0.26 24.98,5.54z"/>
  <path id="svg_11" fill="rgba(249,249,251,1.000)" d="m776.02,514.96c4.94,5.28 7.87,11.59 7.61,18.93c0.28,-1.26 0.56,-2.53 0.84,-3.79c-0.06,3.59 -0.05,7.16 0.06,10.75c-0.3,-0.89 -0.61,-1.77 -0.91,-2.66c-0.26,17.2 -17.92,30.4 -34.45,28.72c-15.38,-0.72 -28.52,-13.59 -29.84,-28.86c-1.09,-13.26 7.18,-26.31 19.49,-31.22c12.61,-6.15 28.08,-2.18 37.2,8.13z"/>
 </g>
</svg>